<?xml version="1.0" encoding="iso-8859-1"?>
<!-- Generator: Adobe Illustrator 16.0.0, SVG Export Plug-In . SVG Version: 6.00 Build 0)  -->
<!DOCTYPE svg PUBLIC "-//W3C//DTD SVG 1.1//EN" "http://www.w3.org/Graphics/SVG/1.1/DTD/svg11.dtd">
<svg version="1.1" id="Capa_1" xmlns="http://www.w3.org/2000/svg" xmlns:xlink="http://www.w3.org/1999/xlink" x="0px" y="0px"
	 width="390px" height="390px" viewBox="0 0 390 390" style="enable-background:new 0 0 390 390;" xml:space="preserve">
<g>
	<g>
		<path d="M195,0C87.303,0,0,87.303,0,195c0,107.697,87.303,195,195,195c107.697,0,195-87.303,195-195C390,87.303,302.697,0,195,0z
			 M253.871,211.921l-66.328,66.326c-4.578,4.577-10.702,7.011-16.927,7.011c-3.085,0-6.189-0.594-9.152-1.82
			c-8.94-3.704-14.774-12.431-14.774-22.106V128.669c0-9.676,5.834-18.403,14.774-22.108c8.94-3.701,19.23-1.654,26.079,5.191
			l66.328,66.328C263.215,187.424,263.215,202.576,253.871,211.921z"/>
	</g>
</g>
<g>
</g>
<g>
</g>
<g>
</g>
<g>
</g>
<g>
</g>
<g>
</g>
<g>
</g>
<g>
</g>
<g>
</g>
<g>
</g>
<g>
</g>
<g>
</g>
<g>
</g>
<g>
</g>
<g>
</g>
</svg>
